# xmcd
#
# Track frame offsets:
#	150
#	1573
#	14178
#	30422
#	45057
#	64525
#	82190
#	89316
#	109566
#	135277
#	148862
#	164418
#	177506
#
# Disc length: 2600 seconds
#
# Revision: 0
# Processed by: cddbd v1.5.1PL2 Copyright (c) Steve Scherf et al.
# Submitted via: audiograbber 1.81.03
#
DISCID=990a260d
DTITLE=Roosevelt Sykes and Victoria Spivey - Grind It! Live - 1973
DYEAR=1999
DGENRE=Blues
TTITLE0=Roosevelt Sykes - Intro
TTITLE1=Roosevelt Sykes - Driving Wheel
TTITLE2=Roosevelt Sykes - Night Time is the Right Time
TTITLE3=Roosevelt Sykes - Run This Boogie
TTITLE4=Roosevelt Sykes - St James Infirmary
TTITLE5=Roosevelt Sykes - Dirty Mother For You
TTITLE6=Roosevelt Sykes - Looka Here! (C'mon Let's Shake)
TTITLE7=Victoria Spivey - Black Snake Blues
TTITLE8=Victoria Spivey - Detroit Moan
TTITLE9=Victoria Spivey - You're a Rank Stud
TTITLE10=Victoria Spivey - Organ Grinder Blues
TTITLE11=Victoria Spivey - I'm Tired
TTITLE12=Victoria Spivey - Brooklyn Bridge Blues
EXTD=Live at the Ann Arbor Blues and Jazz Festival 1973
EXTT0=Roosevelt Skyes on Grand Piano and vocalists on all his tracks
EXTT1=by Roosevelt Skyes\n
EXTT2=by Roosevelt Skyes
EXTT3=by Roosevelt Skyes
EXTT4=by J. Primrose
EXTT5=by Roosevelt Skyes
EXTT6=by Roosevelt Skyes
EXTT7=by Victoria Spivey
EXTT8=by Victoria Spivey
EXTT9=by Victoria Spivey
EXTT10=by Clarence Williams
EXTT11=
EXTT12=by Victoria Spivey
PLAYORDER=
